<mxfile host="app.diagrams.net" agent="Mozilla/5.0 (Windows NT 10.0; Win64; x64) AppleWebKit/537.36 (KHTML, like Gecko) Chrome/127.0.0.0 Safari/537.36 OPR/113.0.0.0" version="24.7.17">
  <diagram id="C5RBs43oDa-KdzZeNtuy" name="Page-1">
    <mxGraphModel dx="2018" dy="948" grid="1" gridSize="10" guides="1" tooltips="1" connect="1" arrows="1" fold="1" page="1" pageScale="1" pageWidth="827" pageHeight="1169" math="0" shadow="0">
      <root>
        <mxCell id="WIyWlLk6GJQsqaUBKTNV-0" />
        <mxCell id="WIyWlLk6GJQsqaUBKTNV-1" parent="WIyWlLk6GJQsqaUBKTNV-0" />
        <mxCell id="Tip-lkdg16izol2r0epo-2" value="" style="group" vertex="1" connectable="0" parent="WIyWlLk6GJQsqaUBKTNV-1">
          <mxGeometry x="200" y="340" width="80" height="80" as="geometry" />
        </mxCell>
        <mxCell id="Tip-lkdg16izol2r0epo-0" value="" style="whiteSpace=wrap;html=1;aspect=fixed;" vertex="1" parent="Tip-lkdg16izol2r0epo-2">
          <mxGeometry width="80" height="80" as="geometry" />
        </mxCell>
        <mxCell id="Tip-lkdg16izol2r0epo-1" value="1" style="whiteSpace=wrap;html=1;aspect=fixed;" vertex="1" parent="Tip-lkdg16izol2r0epo-2">
          <mxGeometry x="15" y="15" width="50" height="50" as="geometry" />
        </mxCell>
        <mxCell id="Tip-lkdg16izol2r0epo-3" value="V1" style="whiteSpace=wrap;html=1;aspect=fixed;" vertex="1" parent="WIyWlLk6GJQsqaUBKTNV-1">
          <mxGeometry x="200" y="480" width="80" height="80" as="geometry" />
        </mxCell>
        <mxCell id="Tip-lkdg16izol2r0epo-4" style="edgeStyle=orthogonalEdgeStyle;rounded=0;orthogonalLoop=1;jettySize=auto;html=1;" edge="1" parent="WIyWlLk6GJQsqaUBKTNV-1" source="Tip-lkdg16izol2r0epo-0" target="Tip-lkdg16izol2r0epo-3">
          <mxGeometry relative="1" as="geometry" />
        </mxCell>
        <mxCell id="Tip-lkdg16izol2r0epo-5" value="V2" style="whiteSpace=wrap;html=1;aspect=fixed;" vertex="1" parent="WIyWlLk6GJQsqaUBKTNV-1">
          <mxGeometry x="200" y="620" width="80" height="80" as="geometry" />
        </mxCell>
        <mxCell id="Tip-lkdg16izol2r0epo-6" style="edgeStyle=orthogonalEdgeStyle;rounded=0;orthogonalLoop=1;jettySize=auto;html=1;" edge="1" parent="WIyWlLk6GJQsqaUBKTNV-1" target="Tip-lkdg16izol2r0epo-5">
          <mxGeometry relative="1" as="geometry">
            <mxPoint x="240" y="560" as="sourcePoint" />
          </mxGeometry>
        </mxCell>
        <mxCell id="Tip-lkdg16izol2r0epo-7" value="H1" style="whiteSpace=wrap;html=1;aspect=fixed;" vertex="1" parent="WIyWlLk6GJQsqaUBKTNV-1">
          <mxGeometry x="200" y="760" width="80" height="80" as="geometry" />
        </mxCell>
        <mxCell id="Tip-lkdg16izol2r0epo-8" style="edgeStyle=orthogonalEdgeStyle;rounded=0;orthogonalLoop=1;jettySize=auto;html=1;" edge="1" parent="WIyWlLk6GJQsqaUBKTNV-1" target="Tip-lkdg16izol2r0epo-7">
          <mxGeometry relative="1" as="geometry">
            <mxPoint x="240" y="700" as="sourcePoint" />
          </mxGeometry>
        </mxCell>
        <mxCell id="Tip-lkdg16izol2r0epo-10" style="edgeStyle=orthogonalEdgeStyle;rounded=0;orthogonalLoop=1;jettySize=auto;html=1;" edge="1" parent="WIyWlLk6GJQsqaUBKTNV-1">
          <mxGeometry relative="1" as="geometry">
            <mxPoint x="240" y="840" as="sourcePoint" />
            <mxPoint x="240" y="900" as="targetPoint" />
          </mxGeometry>
        </mxCell>
        <mxCell id="Tip-lkdg16izol2r0epo-11" value="" style="endArrow=none;html=1;rounded=0;" edge="1" parent="WIyWlLk6GJQsqaUBKTNV-1">
          <mxGeometry width="50" height="50" relative="1" as="geometry">
            <mxPoint x="200" y="450" as="sourcePoint" />
            <mxPoint x="280" y="450" as="targetPoint" />
          </mxGeometry>
        </mxCell>
        <mxCell id="Tip-lkdg16izol2r0epo-12" value="S1" style="text;html=1;align=center;verticalAlign=middle;whiteSpace=wrap;rounded=0;" vertex="1" parent="WIyWlLk6GJQsqaUBKTNV-1">
          <mxGeometry x="280" y="430" width="60" height="30" as="geometry" />
        </mxCell>
        <mxCell id="Tip-lkdg16izol2r0epo-14" value="" style="endArrow=none;html=1;rounded=0;" edge="1" parent="WIyWlLk6GJQsqaUBKTNV-1">
          <mxGeometry width="50" height="50" relative="1" as="geometry">
            <mxPoint x="200" y="590" as="sourcePoint" />
            <mxPoint x="280" y="590" as="targetPoint" />
          </mxGeometry>
        </mxCell>
        <mxCell id="Tip-lkdg16izol2r0epo-15" value="FS1" style="text;html=1;align=center;verticalAlign=middle;whiteSpace=wrap;rounded=0;" vertex="1" parent="WIyWlLk6GJQsqaUBKTNV-1">
          <mxGeometry x="280" y="570" width="60" height="30" as="geometry" />
        </mxCell>
        <mxCell id="Tip-lkdg16izol2r0epo-16" value="" style="endArrow=none;html=1;rounded=0;" edge="1" parent="WIyWlLk6GJQsqaUBKTNV-1">
          <mxGeometry width="50" height="50" relative="1" as="geometry">
            <mxPoint x="200" y="730" as="sourcePoint" />
            <mxPoint x="280" y="730" as="targetPoint" />
          </mxGeometry>
        </mxCell>
        <mxCell id="Tip-lkdg16izol2r0epo-17" value="-FS2/15s" style="text;html=1;align=center;verticalAlign=middle;whiteSpace=wrap;rounded=0;" vertex="1" parent="WIyWlLk6GJQsqaUBKTNV-1">
          <mxGeometry x="280" y="710" width="60" height="30" as="geometry" />
        </mxCell>
      </root>
    </mxGraphModel>
  </diagram>
</mxfile>
